<?xml version="1.0" encoding="utf-8"?>
<!-- Generator: Adobe Illustrator 22.1.0, SVG Export Plug-In . SVG Version: 6.00 Build 0)  -->
<svg version="1.1" id="Layer_1" xmlns="http://www.w3.org/2000/svg" xmlns:xlink="http://www.w3.org/1999/xlink" x="0px" y="0px"
	 viewBox="0 0 270 28.2" style="enable-background:new 0 0 270 28.2;" xml:space="preserve">
<style type="text/css">
	.st0{fill:#FFFFFF;}
</style>
<path class="st0" d="M264.8,3.6l-0.1,11.1c0,0.8,0,1.9,0.1,3.3c0.1,1.4,0.1,2.2,0.1,2.4l-0.1,0L254.5,3.6l-4.2,0l0,9.1l-4.6,0
	c-0.2-2.8-1-5-2.5-6.6c-1.7-1.9-4.2-2.9-7.3-2.9c-3.2,0-5.7,0.9-7.4,2.8c-1.5,1.7-2.4,4-2.6,6.9l-4.6,0l0-9.4l-3.5,0l-0.1,18.3
	l-9.5,0l0.1-15.3l6.3,0l0-3l-16-0.1l0,3l6.3,0l-0.1,15.3l-7.8,0l-6.8-18.4l-3.8,0l-7,18.4l-2.1,0l0,0l-11.1-0.1l10.8-15.8l0-2.4
	l-14.6-0.1l0,3l10.4,0.1l-10.4,15.3l-4.1,0l0.1-18.3l-3.5,0l-0.1,18.3l-5.6,0L149.3,3l-3.2,0l-0.1,11.1c0,0.8,0,1.9,0.1,3.3
	c0.1,1.4,0.1,2.2,0.1,2.4l-0.1,0L135.8,3l-4.2,0l-0.1,18.3l-3.9,0l-6.8-18.4l-3.8,0l-7,18.4l-3.9,0l0.1-18.3l-4.9,0l-6.2,16.9
	l-0.1,0L89.3,2.7l-2.3,0l0,0L76.3,2.7l0,0l-0.8,0l-0.1,13.4c0,3.4-1.7,5.2-4.9,5.1c-1.7,0-2.9-0.4-3.7-1.3c-0.8-0.8-1.2-2.1-1.2-3.9
	l0.1-13.5l-3.5,0v0l-5.4,0v0l-3.5,0l0,8.7l-9.8-0.1l0-8.7l-3.5,0l-0.1,18.3l-4.6,0l0,0l-8.6,0l0-6.7l8,0l0-2.9l-8,0l0-5.8l8.6,0
	l0-2.9l-12-0.1l0,8.8l-4.7,0c-0.3-2.5-1.2-4.5-2.7-6C14,3.2,11.4,2.3,8,2.3l-6.6,0L1.3,23.5l5.9,0c3.7,0,6.5-0.9,8.4-2.7
	c1.7-1.6,2.7-3.9,2.9-6.8l4.6,0l0,9.6l12,0.1l0,0l4.6,0l0,0l3.5,0l0-9.6l9.8,0.1l0,9.6l3.5,0l0.1-18.3l5.4,0l-0.1,10.8
	c0,2.4,0.7,4.4,2.2,5.8c1.5,1.4,3.5,2.1,6.1,2.1c1.8,0,3.3-0.3,4.6-0.9c1.3-0.6,2.3-1.5,2.9-2.7s1-2.5,1-4.1L79,5.6l5.4,0L84.3,24
	l3.2,0l0.1-10.3c0-2.3-0.1-4.8-0.2-7.4l0.1,0L93.5,24l3.1,0l6.5-17.7l0.1,0c0,0.4-0.1,1.4-0.2,3.1c-0.1,1.7-0.1,3.1-0.1,4.1
	l-0.1,10.5l0.1,0l0,0l7.3,0l2.4,0l2.1-5.9l8.1,0l2.1,5.9l0.3,0l0,0l8.1,0l1.3,0l0.1-11.1c0-1.5-0.1-3.1-0.2-4.9l-0.1-0.9l0.1,0
	l10.4,17l2.4,0l0,0l8.5,0l0,0l2.5,0l0,0l3.8,0v0l15.2,0.1l0,0l3.8,0l0,0l0.8,0l2.1-5.9l8.1,0l2.1,5.9l1.8,0l0,0l1.5,0l0.4,0l0,0
	l6.7,0l0,0l3.5,0l0,0l9.5,0v0l3.5,0l0-8.9l4.7,0c0.2,2.6,1.1,4.8,2.5,6.3c1.7,1.9,4.2,2.9,7.4,2.9c3.2,0,5.6-0.9,7.4-2.8
	c1.5-1.6,2.3-3.8,2.6-6.6l4.6,0l0,9.2l3.2,0l0.1-11.1c0-1.5-0.1-3.1-0.2-4.9l-0.1-0.9l0.1,0l10.4,17l4.3,0L268,3.6L264.8,3.6z
	 M7.3,20.6l-2.5,0L4.9,5.2l3,0c4.8,0,7.1,2.6,7.1,7.7C15,18.1,12.4,20.7,7.3,20.6z M115.8,15.2l1.9-5.5c0.5-1.4,0.9-2.7,1.2-3.9
	c0.1,0.4,0.3,1,0.5,1.8s0.5,1.4,0.6,1.8l2,5.8L115.8,15.2z M185.1,15.6L187,10c0.5-1.4,0.9-2.7,1.2-3.9c0.1,0.4,0.3,1,0.5,1.8
	s0.5,1.4,0.6,1.8l2,5.8L185.1,15.6z M240.4,20.1c-1.1,1.3-2.6,2-4.7,2c-2.1,0-3.6-0.7-4.7-2.1c-1.1-1.4-1.6-3.3-1.6-6
	c0-2.6,0.6-4.6,1.6-5.9s2.6-2,4.7-2c2.1,0,3.6,0.7,4.7,2c1,1.4,1.5,3.3,1.5,5.9C242,16.8,241.4,18.7,240.4,20.1z"/>
</svg>
